{
date = "2013-12-02 21:40:35 +0000";
designer = "Shinji Pons";
designerURL = www.shinjipons.com;
familyName = "Modulo 28";
fontMaster = (
{
alignmentZones = (
"{1280, 10}",
"{0, -10}"
);
ascender = 1280;
capHeight = 1280;
customParameters = (
{
name = familyName;
value = "Modulo 06";
}
);
descender = 0;
guideLines = (
{
position = "{1534, 500}";
},
{
angle = 90;
position = "{860, -124}";
},
{
angle = 90;
position = "{580, -117}";
},
{
position = "{1533, 780}";
},
{
angle = 90;
position = "{80, -86}";
},
{
angle = 90;
position = "{1080, -69}";
},
{
position = "{1520, 1000}";
},
{
position = "{1510, 280}";
},
{
angle = 90;
position = "{1360, -75}";
},
{
angle = 90;
position = "{360, -90}";
},
{
angle = 90;
position = "{220, -86}";
},
{
angle = 90;
position = "{720, -117}";
},
{
angle = 90;
position = "{1220, -75}";
},
{
position = "{1510, 140}";
},
{
position = "{1534, 640}";
},
{
position = "{1520, 1140}";
}
);
horizontalStems = (
280
);
id = "940E2F63-624A-4C3D-A909-721782B4CF41";
verticalStems = (
280
);
weightValue = 6;
widthValue = 128;
xHeight = 1280;
}
);
glyphs = (
{
glyphname = A;
lastChange = "2014-01-05 15:49:26 +0000";
layers = (
{
guideLines = (
{
position = "{1029, 321}";
showMeasurement = 1;
},
{
angle = 90;
position = "{511, 1025}";
showMeasurement = 1;
}
);
layerId = "940E2F63-624A-4C3D-A909-721782B4CF41";
name = Regular;
paths = (
{
closed = 1;
nodes = (
"220 1280 LINE SMOOTH",
"142.679 1280 OFFCURVE",
"80 1217.32 OFFCURVE",
"80 1140 CURVE SMOOTH",
"80 1062.68 OFFCURVE",
"142.679 1000 OFFCURVE",
"220 1000 CURVE SMOOTH",
"1080 1000 LINE",
"1080 280 LINE",
"360 280 LINE",
"360 500 LINE",
"720 500 LINE SMOOTH",
"797.321 500 OFFCURVE",
"860 562.679 OFFCURVE",
"860 640 CURVE SMOOTH",
"860 717.321 OFFCURVE",
"797.321 780 OFFCURVE",
"720 780 CURVE SMOOTH",
"220 780 LINE SMOOTH",
"142.679 780 OFFCURVE",
"80 717.321 OFFCURVE",
"80 640 CURVE SMOOTH",
"80 140 LINE SMOOTH",
"80 62.679 OFFCURVE",
"142.679 0 OFFCURVE",
"220 0 CURVE SMOOTH",
"1220 0 LINE SMOOTH",
"1297.32 0 OFFCURVE",
"1360 62.679 OFFCURVE",
"1360 140 CURVE SMOOTH",
"1360 1140 LINE SMOOTH",
"1360 1217.32 OFFCURVE",
"1297.32 1280 OFFCURVE",
"1220 1280 CURVE SMOOTH"
);
}
);
width = 1440;
}
);
unicode = 0041;
},
{
glyphname = B;
lastChange = "2014-01-05 15:49:26 +0000";
layers = (
{
layerId = "940E2F63-624A-4C3D-A909-721782B4CF41";
name = Regular;
paths = (
{
closed = 1;
nodes = (
"220 1280 LINE SMOOTH",
"142.679 1280 OFFCURVE",
"80 1217.32 OFFCURVE",
"80 1140 CURVE SMOOTH",
"80 140 LINE SMOOTH",
"80 62.679 OFFCURVE",
"142.679 0 OFFCURVE",
"220 0 CURVE SMOOTH",
"297.321 0 OFFCURVE",
"360 62.679 OFFCURVE",
"360 140 CURVE SMOOTH",
"360 1000 LINE",
"1080 1000 LINE",
"1080 780 LINE",
"720 780 LINE SMOOTH",
"642.679 780 OFFCURVE",
"580 717.321 OFFCURVE",
"580 640 CURVE SMOOTH",
"580 562.679 OFFCURVE",
"642.679 500 OFFCURVE",
"720 500 CURVE SMOOTH",
"1080 500 LINE",
"1080 280 LINE",
"720 280 LINE SMOOTH",
"642.679 280 OFFCURVE",
"580 217.321 OFFCURVE",
"580 140 CURVE SMOOTH",
"580 62.679 OFFCURVE",
"642.679 0 OFFCURVE",
"720 0 CURVE SMOOTH",
"1220 0 LINE SMOOTH",
"1297.32 0 OFFCURVE",
"1360 62.679 OFFCURVE",
"1360 140 CURVE SMOOTH",
"1360 1140 LINE SMOOTH",
"1360 1217.32 OFFCURVE",
"1297.32 1280 OFFCURVE",
"1220 1280 CURVE SMOOTH"
);
}
);
width = 1440;
}
);
unicode = 0042;
},
{
glyphname = C;
lastChange = "2014-01-05 15:49:26 +0000";
layers = (
{
layerId = "940E2F63-624A-4C3D-A909-721782B4CF41";
name = Regular;
paths = (
{
closed = 1;
nodes = (
"220 1280 LINE SMOOTH",
"142.679 1280 OFFCURVE",
"80 1217.32 OFFCURVE",
"80 1140 CURVE SMOOTH",
"80 140 LINE SMOOTH",
"80 62.679 OFFCURVE",
"142.679 0 OFFCURVE",
"220 0 CURVE SMOOTH",
"1220 0 LINE SMOOTH",
"1297.32 0 OFFCURVE",
"1360 62.679 OFFCURVE",
"1360 140 CURVE SMOOTH",
"1360 217.321 OFFCURVE",
"1297.32 280 OFFCURVE",
"1220 280 CURVE SMOOTH",
"360 280 LINE",
"360 1000 LINE",
"1220 1000 LINE SMOOTH",
"1297.32 1000 OFFCURVE",
"1360 1062.68 OFFCURVE",
"1360 1140 CURVE SMOOTH",
"1360 1217.32 OFFCURVE",
"1297.32 1280 OFFCURVE",
"1220 1280 CURVE SMOOTH"
);
}
);
width = 1440;
}
);
unicode = 0043;
},
{
glyphname = D;
lastChange = "2014-01-05 15:49:26 +0000";
layers = (
{
layerId = "940E2F63-624A-4C3D-A909-721782B4CF41";
name = Regular;
paths = (
{
closed = 1;
nodes = (
"220 1280 LINE SMOOTH",
"142.679 1280 OFFCURVE",
"80 1217.32 OFFCURVE",
"80 1140 CURVE SMOOTH",
"80 1062.68 OFFCURVE",
"142.679 1000 OFFCURVE",
"220 1000 CURVE SMOOTH",
"1080 1000 LINE",
"1080 280 LINE",
"360 280 LINE",
"360 640 LINE SMOOTH",
"360 717.321 OFFCURVE",
"297.321 780 OFFCURVE",
"220 780 CURVE SMOOTH",
"142.679 780 OFFCURVE",
"80 717.321 OFFCURVE",
"80 640 CURVE SMOOTH",
"80 140 LINE SMOOTH",
"80 62.679 OFFCURVE",
"142.679 0 OFFCURVE",
"220 0 CURVE SMOOTH",
"1220 0 LINE SMOOTH",
"1297.32 0 OFFCURVE",
"1360 62.679 OFFCURVE",
"1360 140 CURVE SMOOTH",
"1360 1140 LINE SMOOTH",
"1360 1217.32 OFFCURVE",
"1297.32 1280 OFFCURVE",
"1220 1280 CURVE SMOOTH"
);
}
);
width = 1440;
}
);
unicode = 0044;
},
{
glyphname = E;
lastChange = "2014-01-05 15:49:26 +0000";
layers = (
{
layerId = "940E2F63-624A-4C3D-A909-721782B4CF41";
name = Regular;
paths = (
{
closed = 1;
nodes = (
"720 1280 LINE SMOOTH",
"642.679 1280 OFFCURVE",
"580 1217.32 OFFCURVE",
"580 1140 CURVE SMOOTH",
"580 1062.68 OFFCURVE",
"642.679 1000 OFFCURVE",
"720 1000 CURVE SMOOTH",
"1080 1000 LINE",
"1080 780 LINE",
"360 780 LINE",
"360 1140 LINE SMOOTH",
"360 1217.32 OFFCURVE",
"297.321 1280 OFFCURVE",
"220 1280 CURVE SMOOTH",
"142.679 1280 OFFCURVE",
"80 1217.32 OFFCURVE",
"80 1140 CURVE SMOOTH",
"80 140 LINE SMOOTH",
"80 62.679 OFFCURVE",
"142.679 0 OFFCURVE",
"220 0 CURVE SMOOTH",
"1220 0 LINE SMOOTH",
"1297.32 0 OFFCURVE",
"1360 62.679 OFFCURVE",
"1360 140 CURVE SMOOTH",
"1360 217.321 OFFCURVE",
"1297.32 280 OFFCURVE",
"1220 280 CURVE SMOOTH",
"360 280 LINE",
"360 500 LINE",
"1220 500 LINE SMOOTH",
"1297.32 500 OFFCURVE",
"1360 562.679 OFFCURVE",
"1360 640 CURVE SMOOTH",
"1360 1140 LINE SMOOTH",
"1360 1217.32 OFFCURVE",
"1297.32 1280 OFFCURVE",
"1220 1280 CURVE SMOOTH"
);
}
);
width = 1440;
}
);
unicode = 0045;
},
{
glyphname = F;
lastChange = "2014-01-05 15:49:26 +0000";
layers = (
{
layerId = "940E2F63-624A-4C3D-A909-721782B4CF41";
name = Regular;
paths = (
{
closed = 1;
nodes = (
"220 1280 LINE SMOOTH",
"142.679 1280 OFFCURVE",
"80 1217.32 OFFCURVE",
"80 1140 CURVE SMOOTH",
"80 140 LINE SMOOTH",
"80 62.679 OFFCURVE",
"142.679 0 OFFCURVE",
"220 0 CURVE SMOOTH",
"297.321 0 OFFCURVE",
"360 62.679 OFFCURVE",
"360 140 CURVE SMOOTH",
"360 500 LINE",
"1220 500 LINE SMOOTH",
"1297.32 500 OFFCURVE",
"1360 562.679 OFFCURVE",
"1360 640 CURVE SMOOTH",
"1360 717.321 OFFCURVE",
"1297.32 780 OFFCURVE",
"1220 780 CURVE SMOOTH",
"360 780 LINE",
"360 1000 LINE",
"1220 1000 LINE SMOOTH",
"1297.32 1000 OFFCURVE",
"1360 1062.68 OFFCURVE",
"1360 1140 CURVE SMOOTH",
"1360 1217.32 OFFCURVE",
"1297.32 1280 OFFCURVE",
"1220 1280 CURVE SMOOTH"
);
}
);
width = 1440;
}
);
unicode = 0046;
},
{
glyphname = H;
lastChange = "2014-01-05 15:49:26 +0000";
layers = (
{
layerId = "940E2F63-624A-4C3D-A909-721782B4CF41";
name = Regular;
paths = (
{
closed = 1;
nodes = (
"1142.68 1280 OFFCURVE",
"1080 1217.32 OFFCURVE",
"1080 1140 CURVE SMOOTH",
"1080 780 LINE",
"360 780 LINE",
"360 1140 LINE SMOOTH",
"360 1217.32 OFFCURVE",
"297.321 1280 OFFCURVE",
"220 1280 CURVE SMOOTH",
"142.679 1280 OFFCURVE",
"80 1217.32 OFFCURVE",
"80 1140 CURVE SMOOTH",
"80 140 LINE SMOOTH",
"80 62.679 OFFCURVE",
"142.679 0 OFFCURVE",
"220 0 CURVE SMOOTH",
"297.321 0 OFFCURVE",
"360 62.679 OFFCURVE",
"360 140 CURVE SMOOTH",
"360 500 LINE",
"1080 500 LINE",
"1080 140 LINE SMOOTH",
"1080 62.679 OFFCURVE",
"1142.68 0 OFFCURVE",
"1220 0 CURVE SMOOTH",
"1297.32 0 OFFCURVE",
"1360 62.679 OFFCURVE",
"1360 140 CURVE SMOOTH",
"1360 1140 LINE SMOOTH",
"1360 1217.32 OFFCURVE",
"1297.32 1280 OFFCURVE",
"1220 1280 CURVE SMOOTH"
);
}
);
width = 1440;
}
);
unicode = 0048;
},
{
glyphname = J;
lastChange = "2014-01-05 15:49:26 +0000";
layers = (
{
layerId = "940E2F63-624A-4C3D-A909-721782B4CF41";
name = Regular;
paths = (
{
closed = 1;
nodes = (
"720 1280 LINE SMOOTH",
"642.679 1280 OFFCURVE",
"580 1217.32 OFFCURVE",
"580 1140 CURVE SMOOTH",
"580 1062.68 OFFCURVE",
"642.679 1000 OFFCURVE",
"720 1000 CURVE SMOOTH",
"1080 1000 LINE",
"1080 280 LINE",
"220 280 LINE SMOOTH",
"142.679 280 OFFCURVE",
"80 217.321 OFFCURVE",
"80 140 CURVE SMOOTH",
"80 62.679 OFFCURVE",
"142.679 0 OFFCURVE",
"220 0 CURVE SMOOTH",
"1220 0 LINE SMOOTH",
"1297.32 0 OFFCURVE",
"1360 62.679 OFFCURVE",
"1360 140 CURVE SMOOTH",
"1360 1140 LINE SMOOTH",
"1360 1217.32 OFFCURVE",
"1297.32 1280 OFFCURVE",
"1220 1280 CURVE SMOOTH"
);
}
);
width = 1440;
}
);
unicode = 004A;
},
{
glyphname = K;
lastChange = "2014-01-05 15:49:26 +0000";
layers = (
{
layerId = "940E2F63-624A-4C3D-A909-721782B4CF41";
name = Regular;
paths = (
{
closed = 1;
nodes = (
"720 1280 LINE SMOOTH",
"642.679 1280 OFFCURVE",
"580 1217.32 OFFCURVE",
"580 1140 CURVE SMOOTH",
"580 780 LINE",
"360 780 LINE",
"360 1140 LINE SMOOTH",
"360 1217.32 OFFCURVE",
"297.321 1280 OFFCURVE",
"220 1280 CURVE SMOOTH",
"142.679 1280 OFFCURVE",
"80 1217.32 OFFCURVE",
"80 1140 CURVE SMOOTH",
"80 140 LINE SMOOTH",
"80 62.679 OFFCURVE",
"142.679 0 OFFCURVE",
"220 0 CURVE SMOOTH",
"297.321 0 OFFCURVE",
"360 62.679 OFFCURVE",
"360 140 CURVE SMOOTH",
"360 500 LINE",
"1080 500 LINE",
"1080 140 LINE SMOOTH",
"1080 62.679 OFFCURVE",
"1142.68 0 OFFCURVE",
"1220 0 CURVE SMOOTH",
"1297.32 0 OFFCURVE",
"1360 62.679 OFFCURVE",
"1360 140 CURVE SMOOTH",
"1360 640 LINE SMOOTH",
"1360 717.321 OFFCURVE",
"1297.32 780 OFFCURVE",
"1220 780 CURVE SMOOTH",
"860 780 LINE",
"860 1000 LINE",
"1220 1000 LINE SMOOTH",
"1297.32 1000 OFFCURVE",
"1360 1062.68 OFFCURVE",
"1360 1140 CURVE SMOOTH",
"1360 1217.32 OFFCURVE",
"1297.32 1280 OFFCURVE",
"1220 1280 CURVE SMOOTH"
);
}
);
width = 1440;
}
);
unicode = 004B;
},
{
glyphname = L;
lastChange = "2014-01-05 15:49:26 +0000";
layers = (
{
layerId = "940E2F63-624A-4C3D-A909-721782B4CF41";
name = Regular;
paths = (
{
closed = 1;
nodes = (
"142.679 1280 OFFCURVE",
"80 1217.32 OFFCURVE",
"80 1140 CURVE SMOOTH",
"80 140 LINE SMOOTH",
"80 62.679 OFFCURVE",
"142.679 0 OFFCURVE",
"220 0 CURVE SMOOTH",
"1220 0 LINE SMOOTH",
"1297.32 0 OFFCURVE",
"1360 62.679 OFFCURVE",
"1360 140 CURVE SMOOTH",
"1360 217.321 OFFCURVE",
"1297.32 280 OFFCURVE",
"1220 280 CURVE SMOOTH",
"360 280 LINE",
"360 1140 LINE SMOOTH",
"360 1217.32 OFFCURVE",
"297.321 1280 OFFCURVE",
"220 1280 CURVE SMOOTH"
);
}
);
width = 1440;
}
);
unicode = 004C;
},
{
glyphname = M;
lastChange = "2014-01-05 15:49:26 +0000";
layers = (
{
layerId = "940E2F63-624A-4C3D-A909-721782B4CF41";
name = Regular;
paths = (
{
closed = 1;
nodes = (
"220 1280 LINE SMOOTH",
"142.679 1280 OFFCURVE",
"80 1217.32 OFFCURVE",
"80 1140 CURVE SMOOTH",
"80 140 LINE SMOOTH",
"80 62.68 OFFCURVE",
"142.679 0 OFFCURVE",
"220 0 CURVE SMOOTH",
"297.321 0 OFFCURVE",
"360 62.68 OFFCURVE",
"360 140 CURVE SMOOTH",
"360 1000 LINE",
"580 1000 LINE",
"580 140 LINE SMOOTH",
"580 62.679 OFFCURVE",
"642.679 0 OFFCURVE",
"720 0 CURVE SMOOTH",
"797.321 0 OFFCURVE",
"860 62.679 OFFCURVE",
"860 140 CURVE SMOOTH",
"860 1000 LINE",
"1080 1000 LINE",
"1080 140 LINE SMOOTH",
"1080 62.68 OFFCURVE",
"1142.68 0 OFFCURVE",
"1220 0 CURVE SMOOTH",
"1297.32 0 OFFCURVE",
"1360 62.68 OFFCURVE",
"1360 140 CURVE SMOOTH",
"1360 1140 LINE SMOOTH",
"1360 1217.32 OFFCURVE",
"1297.32 1280 OFFCURVE",
"1220 1280 CURVE SMOOTH"
);
}
);
width = 1440;
}
);
unicode = 004D;
},
{
glyphname = N;
lastChange = "2014-01-05 15:49:26 +0000";
layers = (
{
layerId = "940E2F63-624A-4C3D-A909-721782B4CF41";
name = Regular;
paths = (
{
closed = 1;
nodes = (
"1142.68 1280 OFFCURVE",
"1080 1217.32 OFFCURVE",
"1080 1140 CURVE SMOOTH",
"1080 280 LINE",
"860 280 LINE",
"860 1140 LINE SMOOTH",
"860 1217.32 OFFCURVE",
"797.321 1280 OFFCURVE",
"720 1280 CURVE SMOOTH",
"220 1280 LINE SMOOTH",
"142.679 1280 OFFCURVE",
"80 1217.32 OFFCURVE",
"80 1140 CURVE SMOOTH",
"80 140 LINE SMOOTH",
"80 62.679 OFFCURVE",
"142.679 0 OFFCURVE",
"220 0 CURVE SMOOTH",
"297.321 0 OFFCURVE",
"360 62.679 OFFCURVE",
"360 140 CURVE SMOOTH",
"360 1000 LINE",
"580 1000 LINE",
"580 140 LINE SMOOTH",
"580 62.679 OFFCURVE",
"642.679 0 OFFCURVE",
"720 0 CURVE SMOOTH",
"1220 0 LINE SMOOTH",
"1297.32 0 OFFCURVE",
"1360 62.679 OFFCURVE",
"1360 140 CURVE SMOOTH",
"1360 1140 LINE SMOOTH",
"1360 1217.32 OFFCURVE",
"1297.32 1280 OFFCURVE",
"1220 1280 CURVE SMOOTH"
);
}
);
width = 1440;
}
);
unicode = 004E;
},
{
glyphname = O;
lastChange = "2014-01-05 15:49:26 +0000";
layers = (
{
layerId = "940E2F63-624A-4C3D-A909-721782B4CF41";
name = Regular;
paths = (
{
closed = 1;
nodes = (
"220 1280 LINE SMOOTH",
"142.679 1280 OFFCURVE",
"80 1217.32 OFFCURVE",
"80 1140 CURVE SMOOTH",
"80 140 LINE SMOOTH",
"80 62.679 OFFCURVE",
"142.679 0 OFFCURVE",
"220 0 CURVE SMOOTH",
"1220 0 LINE SMOOTH",
"1297.32 0 OFFCURVE",
"1360 62.679 OFFCURVE",
"1360 140 CURVE SMOOTH",
"1360 1140 LINE SMOOTH",
"1360 1217.32 OFFCURVE",
"1297.32 1280 OFFCURVE",
"1220 1280 CURVE SMOOTH"
);
},
{
closed = 1;
nodes = (
"1080 280 LINE",
"360 280 LINE",
"360 1000 LINE",
"1080 1000 LINE"
);
}
);
width = 1440;
}
);
unicode = 004F;
},
{
glyphname = P;
lastChange = "2014-01-05 15:49:26 +0000";
layers = (
{
layerId = "940E2F63-624A-4C3D-A909-721782B4CF41";
name = Regular;
paths = (
{
closed = 1;
nodes = (
"220 1280 LINE SMOOTH",
"142.679 1280 OFFCURVE",
"80 1217.32 OFFCURVE",
"80 1140 CURVE SMOOTH",
"80 140 LINE SMOOTH",
"80 62.679 OFFCURVE",
"142.679 0 OFFCURVE",
"220 0 CURVE SMOOTH",
"297.321 0 OFFCURVE",
"360 62.679 OFFCURVE",
"360 140 CURVE SMOOTH",
"360 1000 LINE",
"1080 1000 LINE",
"1081 780 LINE",
"720 780 LINE SMOOTH",
"642.679 780 OFFCURVE",
"580 717.321 OFFCURVE",
"580 640 CURVE SMOOTH",
"580 562.679 OFFCURVE",
"642.679 500 OFFCURVE",
"720 500 CURVE SMOOTH",
"1219 500 LINE SMOOTH",
"1297.32 500 OFFCURVE",
"1360 562.679 OFFCURVE",
"1360 640 CURVE SMOOTH",
"1360 1140 LINE SMOOTH",
"1360 1217.32 OFFCURVE",
"1297.32 1280 OFFCURVE",
"1220 1280 CURVE SMOOTH"
);
}
);
width = 1440;
}
);
unicode = 0050;
},
{
glyphname = Q;
lastChange = "2014-01-05 15:49:26 +0000";
layers = (
{
layerId = "940E2F63-624A-4C3D-A909-721782B4CF41";
name = Regular;
paths = (
{
closed = 1;
nodes = (
"220 1280 LINE SMOOTH",
"142.679 1280 OFFCURVE",
"80 1217.32 OFFCURVE",
"80 1140 CURVE SMOOTH",
"80 140 LINE SMOOTH",
"80 62.679 OFFCURVE",
"142.679 0 OFFCURVE",
"220 0 CURVE SMOOTH",
"1220 0 LINE SMOOTH",
"1297.32 0 OFFCURVE",
"1360 62.679 OFFCURVE",
"1360 140 CURVE SMOOTH",
"1360 1140 LINE SMOOTH",
"1360 1217.32 OFFCURVE",
"1297.32 1280 OFFCURVE",
"1220 1280 CURVE SMOOTH"
);
},
{
closed = 1;
nodes = (
"1080 280 LINE",
"860 280 LINE",
"860 640 LINE SMOOTH",
"860 717.321 OFFCURVE",
"797.321 780 OFFCURVE",
"720 780 CURVE SMOOTH",
"642.679 780 OFFCURVE",
"580 717.321 OFFCURVE",
"580 640 CURVE SMOOTH",
"580 280 LINE",
"360 280 LINE",
"360 1000 LINE",
"1080 1000 LINE"
);
}
);
width = 1440;
}
);
unicode = 0051;
},
{
glyphname = R;
lastChange = "2014-01-05 15:49:26 +0000";
layers = (
{
layerId = "940E2F63-624A-4C3D-A909-721782B4CF41";
name = Regular;
paths = (
{
closed = 1;
nodes = (
"220 1280 LINE SMOOTH",
"142.679 1280 OFFCURVE",
"80 1217.32 OFFCURVE",
"80 1140 CURVE SMOOTH",
"80 140 LINE SMOOTH",
"80 62.679 OFFCURVE",
"142.679 0 OFFCURVE",
"220 0 CURVE SMOOTH",
"297.321 0 OFFCURVE",
"360 62.679 OFFCURVE",
"360 140 CURVE SMOOTH",
"360 1000 LINE",
"1080 1000 LINE",
"1080 780 LINE",
"720 780 LINE SMOOTH",
"642.679 780 OFFCURVE",
"580 717.321 OFFCURVE",
"580 640 CURVE SMOOTH",
"580 140 LINE SMOOTH",
"580 62.679 OFFCURVE",
"642.679 0 OFFCURVE",
"720 0 CURVE SMOOTH",
"1220 0 LINE SMOOTH",
"1297.32 0 OFFCURVE",
"1360 62.679 OFFCURVE",
"1360 140 CURVE SMOOTH",
"1360 217.321 OFFCURVE",
"1297.32 280 OFFCURVE",
"1220 280 CURVE SMOOTH",
"860 280 LINE",
"860 500 LINE",
"1220 500 LINE SMOOTH",
"1297.32 500 OFFCURVE",
"1360 562.679 OFFCURVE",
"1360 640 CURVE SMOOTH",
"1360 1140 LINE SMOOTH",
"1360 1217.32 OFFCURVE",
"1297.32 1280 OFFCURVE",
"1220 1280 CURVE SMOOTH"
);
}
);
width = 1440;
}
);
unicode = 0052;
},
{
glyphname = T;
lastChange = "2014-01-05 15:49:26 +0000";
layers = (
{
layerId = "940E2F63-624A-4C3D-A909-721782B4CF41";
name = Regular;
paths = (
{
closed = 1;
nodes = (
"220 1280 LINE SMOOTH",
"142.679 1280 OFFCURVE",
"80 1217.32 OFFCURVE",
"80 1140 CURVE SMOOTH",
"80 1062.68 OFFCURVE",
"142.679 1000 OFFCURVE",
"220 1000 CURVE SMOOTH",
"580 1000 LINE",
"580 140 LINE SMOOTH",
"580 62.679 OFFCURVE",
"642.679 0 OFFCURVE",
"720 0 CURVE SMOOTH",
"797.321 0 OFFCURVE",
"860 62.679 OFFCURVE",
"860 140 CURVE SMOOTH",
"860 1000 LINE",
"1220 1000 LINE SMOOTH",
"1297.32 1000 OFFCURVE",
"1360 1062.68 OFFCURVE",
"1360 1140 CURVE SMOOTH",
"1360 1217.32 OFFCURVE",
"1297.32 1280 OFFCURVE",
"1220 1280 CURVE SMOOTH"
);
}
);
width = 1440;
}
);
unicode = 0054;
},
{
glyphname = V;
lastChange = "2014-01-05 15:49:26 +0000";
layers = (
{
layerId = "940E2F63-624A-4C3D-A909-721782B4CF41";
name = Regular;
paths = (
{
closed = 1;
nodes = (
"1142.68 1280 OFFCURVE",
"1080 1217.32 OFFCURVE",
"1080 1140 CURVE SMOOTH",
"1080 780 LINE",
"720 780 LINE SMOOTH",
"642.679 780 OFFCURVE",
"580 717.321 OFFCURVE",
"580 640 CURVE SMOOTH",
"580 280 LINE",
"360 280 LINE",
"360 1140 LINE SMOOTH",
"360 1217.32 OFFCURVE",
"297.321 1280 OFFCURVE",
"220 1280 CURVE SMOOTH",
"142.679 1280 OFFCURVE",
"80 1217.32 OFFCURVE",
"80 1140 CURVE SMOOTH",
"80 140 LINE SMOOTH",
"80 62.679 OFFCURVE",
"142.679 0 OFFCURVE",
"220 0 CURVE SMOOTH",
"720 0 LINE SMOOTH",
"797.321 0 OFFCURVE",
"860 62.679 OFFCURVE",
"860 140 CURVE SMOOTH",
"860 500 LINE",
"1220 500 LINE SMOOTH",
"1297.32 500 OFFCURVE",
"1360 562.679 OFFCURVE",
"1360 640 CURVE SMOOTH",
"1360 1140 LINE SMOOTH",
"1360 1217.32 OFFCURVE",
"1297.32 1280 OFFCURVE",
"1220 1280 CURVE SMOOTH"
);
}
);
width = 1440;
}
);
unicode = 0056;
},
{
glyphname = X;
lastChange = "2014-01-05 15:49:26 +0000";
layers = (
{
layerId = "940E2F63-624A-4C3D-A909-721782B4CF41";
name = Regular;
paths = (
{
closed = 1;
nodes = (
"220 1280 LINE SMOOTH",
"142.679 1280 OFFCURVE",
"80 1217.32 OFFCURVE",
"80 1140 CURVE SMOOTH",
"80 640 LINE SMOOTH",
"80 562.679 OFFCURVE",
"142.679 500 OFFCURVE",
"220 500 CURVE SMOOTH",
"297.321 500 OFFCURVE",
"360 562.679 OFFCURVE",
"360 640 CURVE SMOOTH",
"360 1000 LINE",
"580 1000 LINE",
"580 280 LINE",
"220 280 LINE SMOOTH",
"142.679 280 OFFCURVE",
"80 217.321 OFFCURVE",
"80 140 CURVE SMOOTH",
"80 62.679 OFFCURVE",
"142.679 0 OFFCURVE",
"220 0 CURVE SMOOTH",
"1220 0 LINE SMOOTH",
"1297.32 0 OFFCURVE",
"1360 62.679 OFFCURVE",
"1360 140 CURVE SMOOTH",
"1360 640 LINE SMOOTH",
"1360 717.321 OFFCURVE",
"1297.32 780 OFFCURVE",
"1220 780 CURVE SMOOTH",
"1142.68 780 OFFCURVE",
"1080 717.321 OFFCURVE",
"1080 640 CURVE SMOOTH",
"1080 280 LINE",
"860 280 LINE",
"860 1000 LINE",
"1220 1000 LINE SMOOTH",
"1297.32 1000 OFFCURVE",
"1360 1062.68 OFFCURVE",
"1360 1140 CURVE SMOOTH",
"1360 1217.32 OFFCURVE",
"1297.32 1280 OFFCURVE",
"1220 1280 CURVE SMOOTH"
);
}
);
width = 1440;
}
);
unicode = 0058;
},
{
glyphname = Y;
lastChange = "2014-01-05 15:49:26 +0000";
layers = (
{
layerId = "940E2F63-624A-4C3D-A909-721782B4CF41";
name = Regular;
paths = (
{
closed = 1;
nodes = (
"1142.68 1280 OFFCURVE",
"1080 1217.32 OFFCURVE",
"1080 1140 CURVE SMOOTH",
"1080 780 LINE",
"360 780 LINE",
"360 1140 LINE SMOOTH",
"360 1217.32 OFFCURVE",
"297.321 1280 OFFCURVE",
"220 1280 CURVE SMOOTH",
"142.679 1280 OFFCURVE",
"80 1217.32 OFFCURVE",
"80 1140 CURVE SMOOTH",
"80 640 LINE SMOOTH",
"80 562.679 OFFCURVE",
"142.679 500 OFFCURVE",
"220 500 CURVE SMOOTH",
"1080 500 LINE",
"1080 280 LINE",
"220 280 LINE SMOOTH",
"142.679 280 OFFCURVE",
"80 217.321 OFFCURVE",
"80 140 CURVE SMOOTH",
"80 62.679 OFFCURVE",
"142.679 0 OFFCURVE",
"220 0 CURVE SMOOTH",
"1220 0 LINE SMOOTH",
"1297.32 0 OFFCURVE",
"1360 62.679 OFFCURVE",
"1360 140 CURVE SMOOTH",
"1360 1140 LINE SMOOTH",
"1360 1217.32 OFFCURVE",
"1297.32 1280 OFFCURVE",
"1220 1280 CURVE SMOOTH"
);
}
);
width = 1440;
}
);
unicode = 0059;
},
{
glyphname = zero;
lastChange = "2014-01-05 15:49:26 +0000";
layers = (
{
components = (
{
name = O;
transform = "{1, 0, 0, 1, 0, 0}";
}
);
layerId = "940E2F63-624A-4C3D-A909-721782B4CF41";
name = Regular;
paths = (
{
closed = 1;
nodes = (
"642.679 780 OFFCURVE",
"580 717.321 OFFCURVE",
"580 640 CURVE SMOOTH",
"580 562.679 OFFCURVE",
"642.679 500 OFFCURVE",
"720 500 CURVE SMOOTH",
"797.321 500 OFFCURVE",
"860 562.679 OFFCURVE",
"860 640 CURVE SMOOTH",
"860 717.321 OFFCURVE",
"797.321 780 OFFCURVE",
"720 780 CURVE SMOOTH"
);
}
);
width = 1440;
}
);
unicode = 0030;
},
{
glyphname = one;
lastChange = "2014-01-05 15:49:26 +0000";
layers = (
{
layerId = "940E2F63-624A-4C3D-A909-721782B4CF41";
name = Regular;
paths = (
{
closed = 1;
nodes = (
"220 1280 LINE SMOOTH",
"142.679 1280 OFFCURVE",
"80 1217.32 OFFCURVE",
"80 1140 CURVE SMOOTH",
"80 1062.68 OFFCURVE",
"142.679 1000 OFFCURVE",
"220 1000 CURVE SMOOTH",
"580 1000 LINE",
"580 280 LINE",
"220 280 LINE SMOOTH",
"142.679 280 OFFCURVE",
"80 217.321 OFFCURVE",
"80 140 CURVE SMOOTH",
"80 62.679 OFFCURVE",
"142.679 0 OFFCURVE",
"220 0 CURVE SMOOTH",
"1220 0 LINE SMOOTH",
"1297.32 0 OFFCURVE",
"1360 62.679 OFFCURVE",
"1360 140 CURVE SMOOTH",
"1360 217.321 OFFCURVE",
"1297.32 280 OFFCURVE",
"1220 280 CURVE SMOOTH",
"860 280 LINE",
"860 1140 LINE SMOOTH",
"860 1217.32 OFFCURVE",
"797.321 1280 OFFCURVE",
"720 1280 CURVE SMOOTH"
);
}
);
width = 1440;
}
);
unicode = 0031;
},
{
glyphname = seven;
lastChange = "2014-01-05 15:49:26 +0000";
layers = (
{
layerId = "940E2F63-624A-4C3D-A909-721782B4CF41";
name = Regular;
paths = (
{
closed = 1;
nodes = (
"220 1280 LINE SMOOTH",
"142.679 1280 OFFCURVE",
"80 1217.32 OFFCURVE",
"80 1140 CURVE SMOOTH",
"80 1062.68 OFFCURVE",
"142.679 1000 OFFCURVE",
"220 1000 CURVE SMOOTH",
"1080 1000 LINE",
"1080 780 LINE",
"720 780 LINE SMOOTH",
"642.679 780 OFFCURVE",
"580 717.321 OFFCURVE",
"580 640 CURVE SMOOTH",
"580 140 LINE SMOOTH",
"580 62.679 OFFCURVE",
"642.679 0 OFFCURVE",
"720 0 CURVE SMOOTH",
"797.321 0 OFFCURVE",
"860 62.679 OFFCURVE",
"860 140 CURVE SMOOTH",
"860 500 LINE",
"1220 500 LINE SMOOTH",
"1297.32 500 OFFCURVE",
"1360 562.679 OFFCURVE",
"1360 640 CURVE SMOOTH",
"1360 1140 LINE SMOOTH",
"1360 1217.32 OFFCURVE",
"1297.32 1280 OFFCURVE",
"1220 1280 CURVE SMOOTH"
);
}
);
width = 1440;
}
);
unicode = 0037;
},
{
glyphname = eight;
lastChange = "2014-01-05 15:49:26 +0000";
layers = (
{
layerId = "940E2F63-624A-4C3D-A909-721782B4CF41";
name = Regular;
paths = (
{
closed = 1;
nodes = (
"220 1280 LINE SMOOTH",
"142.679 1280 OFFCURVE",
"80 1217.32 OFFCURVE",
"80 1140 CURVE SMOOTH",
"80 140 LINE SMOOTH",
"80 62.679 OFFCURVE",
"142.679 0 OFFCURVE",
"220 0 CURVE SMOOTH",
"1220 0 LINE SMOOTH",
"1297.32 0 OFFCURVE",
"1360 62.679 OFFCURVE",
"1360 140 CURVE SMOOTH",
"1360 1140 LINE SMOOTH",
"1360 1217.32 OFFCURVE",
"1297.32 1280 OFFCURVE",
"1220 1280 CURVE SMOOTH"
);
},
{
closed = 1;
nodes = (
"1080 280 LINE",
"360 280 LINE",
"360 500 LINE",
"1080 500 LINE"
);
},
{
closed = 1;
nodes = (
"1080 780 LINE",
"360 780 LINE",
"360 1000 LINE",
"1080 1000 LINE"
);
}
);
width = 1440;
}
);
unicode = 0038;
},
{
glyphname = asterisk;
lastChange = "2014-01-05 15:49:26 +0000";
layers = (
{
components = (
{
name = plus;
transform = "{1, 0, 0, 1, 0, 0}";
}
);
layerId = "940E2F63-624A-4C3D-A909-721782B4CF41";
name = Regular;
paths = (
{
closed = 1;
nodes = (
"1142.68 1280 OFFCURVE",
"1080 1217.32 OFFCURVE",
"1080 1140 CURVE SMOOTH",
"1080 1062.68 OFFCURVE",
"1142.68 1000 OFFCURVE",
"1220 1000 CURVE SMOOTH",
"1297.32 1000 OFFCURVE",
"1360 1062.68 OFFCURVE",
"1360 1140 CURVE SMOOTH",
"1360 1217.32 OFFCURVE",
"1297.32 1280 OFFCURVE",
"1220 1280 CURVE SMOOTH"
);
},
{
closed = 1;
nodes = (
"142.679 280 OFFCURVE",
"80 217.32 OFFCURVE",
"80 140 CURVE SMOOTH",
"80 62.68 OFFCURVE",
"142.679 0 OFFCURVE",
"220 0 CURVE SMOOTH",
"297.321 0 OFFCURVE",
"360 62.68 OFFCURVE",
"360 140 CURVE SMOOTH",
"360 217.32 OFFCURVE",
"297.321 280 OFFCURVE",
"220 280 CURVE SMOOTH"
);
},
{
closed = 1;
nodes = (
"142.679 1280 OFFCURVE",
"80 1217.32 OFFCURVE",
"80 1140 CURVE SMOOTH",
"80 1062.68 OFFCURVE",
"142.679 1000 OFFCURVE",
"220 1000 CURVE SMOOTH",
"297.321 1000 OFFCURVE",
"360 1062.68 OFFCURVE",
"360 1140 CURVE SMOOTH",
"360 1217.32 OFFCURVE",
"297.321 1280 OFFCURVE",
"220 1280 CURVE SMOOTH"
);
},
{
closed = 1;
nodes = (
"1142.68 280 OFFCURVE",
"1080 217.32 OFFCURVE",
"1080 140 CURVE SMOOTH",
"1080 62.68 OFFCURVE",
"1142.68 0 OFFCURVE",
"1220 0 CURVE SMOOTH",
"1297.32 0 OFFCURVE",
"1360 62.68 OFFCURVE",
"1360 140 CURVE SMOOTH",
"1360 217.32 OFFCURVE",
"1297.32 280 OFFCURVE",
"1220 280 CURVE SMOOTH"
);
}
);
width = 1440;
}
);
unicode = 002A;
},
{
glyphname = backslash;
lastChange = "2014-01-05 15:49:26 +0000";
layers = (
{
layerId = "940E2F63-624A-4C3D-A909-721782B4CF41";
name = Regular;
paths = (
{
closed = 1;
nodes = (
"1142.68 1280 OFFCURVE",
"1080 1217.32 OFFCURVE",
"1080 1140 CURVE SMOOTH",
"1080 140 LINE SMOOTH",
"1080 62.679 OFFCURVE",
"1142.68 0 OFFCURVE",
"1220 0 CURVE SMOOTH",
"1297.32 0 OFFCURVE",
"1360 62.679 OFFCURVE",
"1360 140 CURVE SMOOTH",
"1360 1140 LINE SMOOTH",
"1360 1217.32 OFFCURVE",
"1297.32 1280 OFFCURVE",
"1220 1280 CURVE SMOOTH"
);
},
{
closed = 1;
nodes = (
"142.679 1280 OFFCURVE",
"80 1217.32 OFFCURVE",
"80 1140 CURVE SMOOTH",
"80 140 LINE SMOOTH",
"80 62.679 OFFCURVE",
"142.679 0 OFFCURVE",
"220 0 CURVE SMOOTH",
"297.321 0 OFFCURVE",
"360 62.679 OFFCURVE",
"360 140 CURVE SMOOTH",
"360 1140 LINE SMOOTH",
"360 1217.32 OFFCURVE",
"297.321 1280 OFFCURVE",
"220 1280 CURVE SMOOTH"
);
},
{
closed = 1;
nodes = (
"642.679 1280 OFFCURVE",
"580 1217.32 OFFCURVE",
"580 1140 CURVE SMOOTH",
"580 140 LINE SMOOTH",
"580 62.679 OFFCURVE",
"642.679 0 OFFCURVE",
"720 0 CURVE SMOOTH",
"797.321 0 OFFCURVE",
"860 62.679 OFFCURVE",
"860 140 CURVE SMOOTH",
"860 1140 LINE SMOOTH",
"860 1217.32 OFFCURVE",
"797.321 1280 OFFCURVE",
"720 1280 CURVE SMOOTH"
);
}
);
width = 1440;
}
);
unicode = 005C;
},
{
glyphname = comma;
lastChange = "2014-01-05 15:49:26 +0000";
layers = (
{
layerId = "940E2F63-624A-4C3D-A909-721782B4CF41";
name = Regular;
paths = (
{
closed = 1;
nodes = (
"220 1280 LINE SMOOTH",
"142.679 1280 OFFCURVE",
"80 1217.32 OFFCURVE",
"80 1140 CURVE SMOOTH",
"80 140 LINE SMOOTH",
"80 62.679 OFFCURVE",
"142.679 0 OFFCURVE",
"220 0 CURVE SMOOTH",
"1220 0 LINE SMOOTH",
"1297.32 0 OFFCURVE",
"1360 62.679 OFFCURVE",
"1360 140 CURVE SMOOTH",
"1360 1140 LINE SMOOTH",
"1360 1217.32 OFFCURVE",
"1297.32 1280 OFFCURVE",
"1220 1280 CURVE SMOOTH"
);
}
);
width = 1440;
}
);
unicode = 002C;
},
{
glyphname = ellipsis;
lastChange = "2014-01-05 15:49:26 +0000";
layers = (
{
layerId = "940E2F63-624A-4C3D-A909-721782B4CF41";
name = Regular;
paths = (
{
closed = 1;
nodes = (
"220 1280 LINE SMOOTH",
"142.679 1280 OFFCURVE",
"80 1217.32 OFFCURVE",
"80 1140 CURVE SMOOTH",
"80 1062.68 OFFCURVE",
"142.679 1000 OFFCURVE",
"220 1000 CURVE SMOOTH",
"1220 1000 LINE SMOOTH",
"1297.32 1000 OFFCURVE",
"1360 1062.68 OFFCURVE",
"1360 1140 CURVE SMOOTH",
"1360 1217.32 OFFCURVE",
"1297.32 1280 OFFCURVE",
"1220 1280 CURVE SMOOTH"
);
},
{
closed = 1;
nodes = (
"142.679 280 OFFCURVE",
"80 217.321 OFFCURVE",
"80 140 CURVE SMOOTH",
"80 62.679 OFFCURVE",
"142.679 0 OFFCURVE",
"220 0 CURVE SMOOTH",
"297.321 0 OFFCURVE",
"360 62.679 OFFCURVE",
"360 140 CURVE SMOOTH",
"360 217.321 OFFCURVE",
"297.321 280 OFFCURVE",
"220 280 CURVE SMOOTH"
);
},
{
closed = 1;
nodes = (
"642.679 280 OFFCURVE",
"580 217.321 OFFCURVE",
"580 140 CURVE SMOOTH",
"580 62.679 OFFCURVE",
"642.679 0 OFFCURVE",
"720 0 CURVE SMOOTH",
"797.321 0 OFFCURVE",
"860 62.679 OFFCURVE",
"860 140 CURVE SMOOTH",
"860 217.321 OFFCURVE",
"797.321 280 OFFCURVE",
"720 280 CURVE SMOOTH"
);
},
{
closed = 1;
nodes = (
"220 780 LINE SMOOTH",
"142.679 780 OFFCURVE",
"80 717.321 OFFCURVE",
"80 640 CURVE SMOOTH",
"80 562.679 OFFCURVE",
"142.679 500 OFFCURVE",
"220 500 CURVE SMOOTH",
"1220 500 LINE SMOOTH",
"1297.32 500 OFFCURVE",
"1360 562.679 OFFCURVE",
"1360 640 CURVE SMOOTH",
"1360 717.321 OFFCURVE",
"1297.32 780 OFFCURVE",
"1220 780 CURVE SMOOTH"
);
},
{
closed = 1;
nodes = (
"1142.68 280 OFFCURVE",
"1080 217.321 OFFCURVE",
"1080 140 CURVE SMOOTH",
"1080 62.679 OFFCURVE",
"1142.68 0 OFFCURVE",
"1220 0 CURVE SMOOTH",
"1297.32 0 OFFCURVE",
"1360 62.679 OFFCURVE",
"1360 140 CURVE SMOOTH",
"1360 217.321 OFFCURVE",
"1297.32 280 OFFCURVE",
"1220 280 CURVE SMOOTH"
);
}
);
width = 1440;
}
);
unicode = 2026;
},
{
glyphname = exclam;
lastChange = "2014-01-05 15:49:26 +0000";
layers = (
{
layerId = "940E2F63-624A-4C3D-A909-721782B4CF41";
name = Regular;
paths = (
{
closed = 1;
nodes = (
"1142.68 1280 OFFCURVE",
"1080 1217.32 OFFCURVE",
"1080 1140 CURVE SMOOTH",
"1080 640 LINE SMOOTH",
"1080 562.679 OFFCURVE",
"1142.68 500 OFFCURVE",
"1220 500 CURVE SMOOTH",
"1297.32 500 OFFCURVE",
"1360 562.679 OFFCURVE",
"1360 640 CURVE SMOOTH",
"1360 1140 LINE SMOOTH",
"1360 1217.32 OFFCURVE",
"1297.32 1280 OFFCURVE",
"1220 1280 CURVE SMOOTH"
);
},
{
closed = 1;
nodes = (
"142.679 280 OFFCURVE",
"80 217.321 OFFCURVE",
"80 140 CURVE SMOOTH",
"80 62.679 OFFCURVE",
"142.679 0 OFFCURVE",
"220 0 CURVE SMOOTH",
"297.321 0 OFFCURVE",
"360 62.679 OFFCURVE",
"360 140 CURVE SMOOTH",
"360 217.321 OFFCURVE",
"297.321 280 OFFCURVE",
"220 280 CURVE SMOOTH"
);
},
{
closed = 1;
nodes = (
"642.679 280 OFFCURVE",
"580 217.321 OFFCURVE",
"580 140 CURVE SMOOTH",
"580 62.679 OFFCURVE",
"642.679 0 OFFCURVE",
"720 0 CURVE SMOOTH",
"797.321 0 OFFCURVE",
"860 62.679 OFFCURVE",
"860 140 CURVE SMOOTH",
"860 217.321 OFFCURVE",
"797.321 280 OFFCURVE",
"720 280 CURVE SMOOTH"
);
},
{
closed = 1;
nodes = (
"142.679 1280 OFFCURVE",
"80 1217.32 OFFCURVE",
"80 1140 CURVE SMOOTH",
"80 640 LINE SMOOTH",
"80 562.679 OFFCURVE",
"142.679 500 OFFCURVE",
"220 500 CURVE SMOOTH",
"297.321 500 OFFCURVE",
"360 562.679 OFFCURVE",
"360 640 CURVE SMOOTH",
"360 1140 LINE SMOOTH",
"360 1217.32 OFFCURVE",
"297.321 1280 OFFCURVE",
"220 1280 CURVE SMOOTH"
);
},
{
closed = 1;
nodes = (
"1142.68 280 OFFCURVE",
"1080 217.321 OFFCURVE",
"1080 140 CURVE SMOOTH",
"1080 62.679 OFFCURVE",
"1142.68 0 OFFCURVE",
"1220 0 CURVE SMOOTH",
"1297.32 0 OFFCURVE",
"1360 62.679 OFFCURVE",
"1360 140 CURVE SMOOTH",
"1360 217.321 OFFCURVE",
"1297.32 280 OFFCURVE",
"1220 280 CURVE SMOOTH"
);
},
{
closed = 1;
nodes = (
"642.679 1280 OFFCURVE",
"580 1217.32 OFFCURVE",
"580 1140 CURVE SMOOTH",
"580 640 LINE SMOOTH",
"580 562.679 OFFCURVE",
"642.679 500 OFFCURVE",
"720 500 CURVE SMOOTH",
"797.321 500 OFFCURVE",
"860 562.679 OFFCURVE",
"860 640 CURVE SMOOTH",
"860 1140 LINE SMOOTH",
"860 1217.32 OFFCURVE",
"797.321 1280 OFFCURVE",
"720 1280 CURVE SMOOTH"
);
}
);
width = 1440;
}
);
unicode = 0021;
},
{
color = 1;
glyphname = numbersign;
lastChange = "2014-01-05 15:49:26 +0000";
layers = (
{
layerId = "940E2F63-624A-4C3D-A909-721782B4CF41";
name = Regular;
paths = (
{
closed = 1;
nodes = (
"220 1280 LINE SMOOTH",
"142.679 1280 OFFCURVE",
"80 1217.32 OFFCURVE",
"80 1140 CURVE SMOOTH",
"80 140 LINE SMOOTH",
"80 62.679 OFFCURVE",
"142.679 0 OFFCURVE",
"220 0 CURVE SMOOTH",
"1220 0 LINE SMOOTH",
"1297.32 0 OFFCURVE",
"1360 62.679 OFFCURVE",
"1360 140 CURVE SMOOTH",
"1360 1140 LINE SMOOTH",
"1360 1217.32 OFFCURVE",
"1297.32 1280 OFFCURVE",
"1220 1280 CURVE SMOOTH"
);
},
{
closed = 1;
nodes = (
"580 280 LINE",
"360 280 LINE",
"360 500 LINE",
"580 500 LINE"
);
},
{
closed = 1;
nodes = (
"580 780 LINE",
"360 780 LINE",
"360 1000 LINE",
"580 1000 LINE"
);
},
{
closed = 1;
nodes = (
"1080 280 LINE",
"860 280 LINE",
"860 500 LINE",
"1080 500 LINE"
);
},
{
closed = 1;
nodes = (
"1080 780 LINE",
"860 780 LINE",
"860 1000 LINE",
"1080 1000 LINE"
);
}
);
width = 1440;
}
);
unicode = 0023;
},
{
glyphname = question;
lastChange = "2014-01-05 15:49:26 +0000";
layers = (
{
layerId = "940E2F63-624A-4C3D-A909-721782B4CF41";
name = Regular;
paths = (
{
closed = 1;
nodes = (
"220 1280 LINE SMOOTH",
"142.679 1280 OFFCURVE",
"80 1217.32 OFFCURVE",
"80 1140 CURVE SMOOTH",
"80 1062.68 OFFCURVE",
"142.679 1000 OFFCURVE",
"220 1000 CURVE SMOOTH",
"1080 1000 LINE",
"1080 780 LINE",
"720 780 LINE SMOOTH",
"642.679 780 OFFCURVE",
"580 717.321 OFFCURVE",
"580 640 CURVE SMOOTH",
"580 562.679 OFFCURVE",
"642.679 500 OFFCURVE",
"720 500 CURVE SMOOTH",
"1220 500 LINE SMOOTH",
"1297.32 500 OFFCURVE",
"1360 562.679 OFFCURVE",
"1360 640 CURVE SMOOTH",
"1360 1140 LINE SMOOTH",
"1360 1217.32 OFFCURVE",
"1297.32 1280 OFFCURVE",
"1220 1280 CURVE SMOOTH"
);
},
{
closed = 1;
nodes = (
"642.679 280 OFFCURVE",
"580 217.321 OFFCURVE",
"580 140 CURVE SMOOTH",
"580 62.679 OFFCURVE",
"642.679 0 OFFCURVE",
"720 0 CURVE SMOOTH",
"797.321 0 OFFCURVE",
"860 62.679 OFFCURVE",
"860 140 CURVE SMOOTH",
"860 217.321 OFFCURVE",
"797.321 280 OFFCURVE",
"720 280 CURVE SMOOTH"
);
}
);
width = 1440;
}
);
unicode = 003F;
},
{
glyphname = braceleft;
lastChange = "2014-01-05 15:49:26 +0000";
layers = (
{
layerId = "940E2F63-624A-4C3D-A909-721782B4CF41";
name = Regular;
paths = (
{
closed = 1;
nodes = (
"720 1280 LINE SMOOTH",
"642.679 1280 OFFCURVE",
"580 1217.32 OFFCURVE",
"580 1140 CURVE SMOOTH",
"580 780 LINE",
"220 780 LINE SMOOTH",
"142.679 780 OFFCURVE",
"80 717.321 OFFCURVE",
"80 640 CURVE SMOOTH",
"80 562.679 OFFCURVE",
"142.679 500 OFFCURVE",
"220 500 CURVE SMOOTH",
"580 500 LINE",
"580 140 LINE SMOOTH",
"580 62.679 OFFCURVE",
"642.679 0 OFFCURVE",
"720 0 CURVE SMOOTH",
"1220 0 LINE SMOOTH",
"1297.32 0 OFFCURVE",
"1360 62.679 OFFCURVE",
"1360 140 CURVE SMOOTH",
"1360 217.321 OFFCURVE",
"1297.32 280 OFFCURVE",
"1220 280 CURVE SMOOTH",
"860 280 LINE",
"860 1000 LINE",
"1220 1000 LINE SMOOTH",
"1297.32 1000 OFFCURVE",
"1360 1062.68 OFFCURVE",
"1360 1140 CURVE SMOOTH",
"1360 1217.32 OFFCURVE",
"1297.32 1280 OFFCURVE",
"1220 1280 CURVE SMOOTH"
);
}
);
width = 1440;
}
);
unicode = 007B;
},
{
color = 0;
glyphname = dollar;
lastChange = "2014-01-05 15:49:26 +0000";
layers = (
{
components = (
{
name = S;
transform = "{1, 0, 0, 1, 0, 0}";
}
);
layerId = "940E2F63-624A-4C3D-A909-721782B4CF41";
name = Regular;
paths = (
{
closed = 1;
nodes = (
"580 1280 LINE",
"580 0 LINE",
"860 0 LINE",
"860 1280 LINE"
);
}
);
width = 1440;
}
);
unicode = 0024;
},
{
color = 0;
glyphname = euro;
lastChange = "2014-01-05 15:49:26 +0000";
layers = (
{
components = (
{
name = braceleft;
transform = "{1, 0, 0, 1, 0, 0}";
}
);
layerId = "940E2F63-624A-4C3D-A909-721782B4CF41";
name = Regular;
paths = (
{
closed = 1;
nodes = (
"647 780 LINE",
"647 500 LINE",
"1220 500 LINE SMOOTH",
"1297.32 500 OFFCURVE",
"1360 562.679 OFFCURVE",
"1360 640 CURVE SMOOTH",
"1360 717.321 OFFCURVE",
"1297.32 780 OFFCURVE",
"1220 780 CURVE SMOOTH"
);
}
);
width = 1440;
}
);
unicode = 20AC;
},
{
glyphname = divide;
lastChange = "2014-01-05 15:49:26 +0000";
layers = (
{
layerId = "940E2F63-624A-4C3D-A909-721782B4CF41";
name = Regular;
paths = (
{
closed = 1;
nodes = (
"220 780 LINE SMOOTH",
"142.679 780 OFFCURVE",
"80 717.321 OFFCURVE",
"80 640 CURVE SMOOTH",
"80 562.679 OFFCURVE",
"142.679 500 OFFCURVE",
"220 500 CURVE SMOOTH",
"1220 500 LINE SMOOTH",
"1297.32 500 OFFCURVE",
"1360 562.679 OFFCURVE",
"1360 640 CURVE SMOOTH",
"1360 717.321 OFFCURVE",
"1297.32 780 OFFCURVE",
"1220 780 CURVE SMOOTH"
);
},
{
closed = 1;
nodes = (
"642.679 280 OFFCURVE",
"580 217.321 OFFCURVE",
"580 140 CURVE SMOOTH",
"580 62.679 OFFCURVE",
"642.679 0 OFFCURVE",
"720 0 CURVE SMOOTH",
"797.321 0 OFFCURVE",
"860 62.679 OFFCURVE",
"860 140 CURVE SMOOTH",
"860 217.321 OFFCURVE",
"797.321 280 OFFCURVE",
"720 280 CURVE SMOOTH"
);
},
{
closed = 1;
nodes = (
"642.679 1280 OFFCURVE",
"580 1217.32 OFFCURVE",
"580 1140 CURVE SMOOTH",
"580 1062.68 OFFCURVE",
"642.679 1000 OFFCURVE",
"720 1000 CURVE SMOOTH",
"797.321 1000 OFFCURVE",
"860 1062.68 OFFCURVE",
"860 1140 CURVE SMOOTH",
"860 1217.32 OFFCURVE",
"797.321 1280 OFFCURVE",
"720 1280 CURVE SMOOTH"
);
}
);
width = 1440;
}
);
unicode = 00F7;
},
{
color = 0;
glyphname = percent;
lastChange = "2014-01-05 15:49:26 +0000";
layers = (
{
layerId = "940E2F63-624A-4C3D-A909-721782B4CF41";
name = Regular;
paths = (
{
closed = 1;
nodes = (
"1142.68 1280 OFFCURVE",
"1080 1217.32 OFFCURVE",
"1080 1140 CURVE SMOOTH",
"1080 780 LINE",
"220 780 LINE SMOOTH",
"142.679 780 OFFCURVE",
"80 717.321 OFFCURVE",
"80 640 CURVE SMOOTH",
"80 140 LINE SMOOTH",
"80 62.679 OFFCURVE",
"142.679 0 OFFCURVE",
"220 0 CURVE SMOOTH",
"297.321 0 OFFCURVE",
"360 62.679 OFFCURVE",
"360 140 CURVE SMOOTH",
"360 500 LINE",
"1220 500 LINE SMOOTH",
"1297.32 500 OFFCURVE",
"1360 562.679 OFFCURVE",
"1360 640 CURVE SMOOTH",
"1360 1140 LINE SMOOTH",
"1360 1217.32 OFFCURVE",
"1297.32 1280 OFFCURVE",
"1220 1280 CURVE SMOOTH"
);
},
{
closed = 1;
nodes = (
"720 280 LINE SMOOTH",
"642.679 280 OFFCURVE",
"580 217.321 OFFCURVE",
"580 140 CURVE SMOOTH",
"580 62.679 OFFCURVE",
"642.679 0 OFFCURVE",
"720 0 CURVE SMOOTH",
"1220 0 LINE SMOOTH",
"1297.32 0 OFFCURVE",
"1360 62.679 OFFCURVE",
"1360 140 CURVE SMOOTH",
"1360 217.321 OFFCURVE",
"1297.32 280 OFFCURVE",
"1220 280 CURVE SMOOTH"
);
},
{
closed = 1;
nodes = (
"220 1280 LINE SMOOTH",
"142.679 1280 OFFCURVE",
"80 1217.32 OFFCURVE",
"80 1140 CURVE SMOOTH",
"80 1062.68 OFFCURVE",
"142.679 1000 OFFCURVE",
"220 1000 CURVE SMOOTH",
"720 1000 LINE SMOOTH",
"797.321 1000 OFFCURVE",
"860 1062.68 OFFCURVE",
"860 1140 CURVE SMOOTH",
"860 1217.32 OFFCURVE",
"797.321 1280 OFFCURVE",
"720 1280 CURVE SMOOTH"
);
}
);
width = 1440;
}
);
unicode = 0025;
},
{
glyphname = plus;
lastChange = "2014-01-05 15:49:26 +0000";
layers = (
{
layerId = "940E2F63-624A-4C3D-A909-721782B4CF41";
name = Regular;
paths = (
{
closed = 1;
nodes = (
"642.679 1280 OFFCURVE",
"580 1217.32 OFFCURVE",
"580 1140 CURVE SMOOTH",
"580 780 LINE",
"220 780 LINE SMOOTH",
"142.679 780 OFFCURVE",
"80 717.321 OFFCURVE",
"80 640 CURVE SMOOTH",
"80 562.679 OFFCURVE",
"142.679 500 OFFCURVE",
"220 500 CURVE SMOOTH",
"580 500 LINE",
"580 140 LINE SMOOTH",
"580 62.68 OFFCURVE",
"642.679 0 OFFCURVE",
"720 0 CURVE SMOOTH",
"797.321 0 OFFCURVE",
"860 62.68 OFFCURVE",
"860 140 CURVE SMOOTH",
"860 500 LINE",
"1220 500 LINE SMOOTH",
"1297.32 500 OFFCURVE",
"1360 562.679 OFFCURVE",
"1360 640 CURVE SMOOTH",
"1360 717.321 OFFCURVE",
"1297.32 780 OFFCURVE",
"1220 780 CURVE SMOOTH",
"860 780 LINE",
"860 1140 LINE SMOOTH",
"860 1217.32 OFFCURVE",
"797.321 1280 OFFCURVE",
"720 1280 CURVE SMOOTH"
);
}
);
width = 1440;
}
);
unicode = 002B;
},
{
glyphname = ampersand;
lastChange = "2014-01-05 15:49:26 +0000";
layers = (
{
layerId = "940E2F63-624A-4C3D-A909-721782B4CF41";
name = Regular;
paths = (
{
closed = 1;
nodes = (
"720 1280 LINE SMOOTH",
"642.679 1280 OFFCURVE",
"580 1217.32 OFFCURVE",
"580 1140 CURVE SMOOTH",
"580 780 LINE",
"220 780 LINE SMOOTH",
"142.679 780 OFFCURVE",
"80 717.321 OFFCURVE",
"80 640 CURVE SMOOTH",
"80 140 LINE SMOOTH",
"80 62.679 OFFCURVE",
"142.679 0 OFFCURVE",
"220 0 CURVE SMOOTH",
"1220 0 LINE SMOOTH",
"1297.32 0 OFFCURVE",
"1360 62.679 OFFCURVE",
"1360 140 CURVE SMOOTH",
"1360 217.321 OFFCURVE",
"1297.32 280 OFFCURVE",
"1220 280 CURVE SMOOTH",
"360 280 LINE",
"360 500 LINE",
"1220 500 LINE SMOOTH",
"1297.32 500 OFFCURVE",
"1360 562.679 OFFCURVE",
"1360 640 CURVE SMOOTH",
"1360 1140 LINE SMOOTH",
"1360 1217.32 OFFCURVE",
"1297.32 1280 OFFCURVE",
"1220 1280 CURVE SMOOTH"
);
},
{
closed = 1;
nodes = (
"1080 780 LINE",
"860 780 LINE",
"860 1000 LINE",
"1080 1000 LINE"
);
}
);
width = 1440;
}
);
unicode = 0026;
},
{
glyphname = degree;
lastChange = "2014-01-05 15:49:26 +0000";
layers = (
{
layerId = "940E2F63-624A-4C3D-A909-721782B4CF41";
name = Regular;
paths = (
{
closed = 1;
nodes = (
"1142.68 780 OFFCURVE",
"1080 717.321 OFFCURVE",
"1080 640 CURVE SMOOTH",
"1080 280 LINE",
"720 280 LINE SMOOTH",
"642.679 280 OFFCURVE",
"580 217.321 OFFCURVE",
"580 140 CURVE SMOOTH",
"580 62.679 OFFCURVE",
"642.679 0 OFFCURVE",
"720 0 CURVE SMOOTH",
"1220 0 LINE SMOOTH",
"1297.32 0 OFFCURVE",
"1360 62.679 OFFCURVE",
"1360 140 CURVE SMOOTH",
"1360 640 LINE SMOOTH",
"1360 717.321 OFFCURVE",
"1297.32 780 OFFCURVE",
"1220 780 CURVE SMOOTH"
);
},
{
closed = 1;
nodes = (
"220 1280 LINE SMOOTH",
"142.679 1280 OFFCURVE",
"80 1217.32 OFFCURVE",
"80 1140 CURVE SMOOTH",
"80 640 LINE SMOOTH",
"80 562.679 OFFCURVE",
"142.679 500 OFFCURVE",
"220 500 CURVE SMOOTH",
"720 500 LINE SMOOTH",
"797.321 500 OFFCURVE",
"860 562.679 OFFCURVE",
"860 640 CURVE SMOOTH",
"860 1140 LINE SMOOTH",
"860 1217.32 OFFCURVE",
"797.321 1280 OFFCURVE",
"720 1280 CURVE SMOOTH"
);
},
{
closed = 1;
nodes = (
"580 780 LINE",
"360 780 LINE",
"360 1000 LINE",
"580 1000 LINE"
);
}
);
width = 1440;
}
);
unicode = 00B0;
},
